HIERARCHY
ROOT root
{
  OFFSET 0 87.9003 0
  CHANNELS 6 Xposition Yposition Zposition Zrotation Xrotation Yrotation
  JOINT torso_1
  {
    OFFSET 0 4.78511 -1.08482
    CHANNELS 6 Xposition Yposition Zposition Zrotation Xrotation Yrotation
    JOINT torso_2
    {
      OFFSET 0 5.29195 1.00949
      CHANNELS 6 Xposition Yposition Zposition Zrotation Xrotation Yrotation
      JOINT torso_3
      {
        OFFSET -9.66735e-18 5.64355 0.108362
        CHANNELS 6 Xposition Yposition Zposition Zrotation Xrotation Yrotation
        JOINT torso_4
        {
          OFFSET -1.04072e-17 6.12977 -0.417886
          CHANNELS 6 Xposition Yposition Zposition Zrotation Xrotation Yrotation
          JOINT torso_5
          {
            OFFSET -1.85891e-17 7.16586 -1.41888
            CHANNELS 6 Xposition Yposition Zposition Zrotation Xrotation Yrotation
            JOINT torso_6
            {
              OFFSET -2.38665e-17 8.94839 -0.861631
              CHANNELS 6 Xposition Yposition Zposition Zrotation Xrotation Yrotation
              JOINT torso_7
              {
                OFFSET -2.73615e-17 9.94144 1.48576
                CHANNELS 6 Xposition Yposition Zposition Zrotation Xrotation Yrotation
                JOINT neck_1
                {
                  OFFSET -1.21725e-17 4.50977 0.67399
                  CHANNELS 6 Xposition Yposition Zposition Zrotation Xrotation Yrotation
                  JOINT neck_2
                  {
                    OFFSET -1.70689e-17 4.54241 0.39741
                    CHANNELS 6 Xposition Yposition Zposition Zrotation Xrotation Yrotation
                    JOINT head
                    {
                      OFFSET -1.89342e-17 4.5512 0.720839
                      CHANNELS 6 Xposition Yposition Zposition Zrotation Xrotation Yrotation
                      End Site
                      {
                        OFFSET 0 0.1 0
                      }
                    }
                  }
                }
                JOINT l_shoulder
                {
                  OFFSET 1.16172 -7.16758 7.09827
                  CHANNELS 6 Xposition Yposition Zposition Zrotation Xrotation Yrotation
                  JOINT l_up_arm
                  {
                    OFFSET 12.2059 3.06167 -3.07978
                    CHANNELS 6 Xposition Yposition Zposition Zrotation Xrotation Yrotation
                    JOINT l_low_arm
                    {
                      OFFSET 27.5197 0.056351 0.129118
                      CHANNELS 6 Xposition Yposition Zposition Zrotation Xrotation Yrotation
                      JOINT l_hand
                      {
                        OFFSET 22.8331 0.0467536 0.107129
                        CHANNELS 6 Xposition Yposition Zposition Zrotation Xrotation Yrotation
                        End Site
                        {
                          OFFSET 0.1 0 0
                        }
                      }
                    }
                  }
                }
                JOINT r_shoulder
                {
                  OFFSET -1.16172 -7.16756 7.09818
                  CHANNELS 6 Xposition Yposition Zposition Zrotation Xrotation Yrotation
                  JOINT r_up_arm
                  {
                    OFFSET -12.2059 3.06167 -3.07978
                    CHANNELS 6 Xposition Yposition Zposition Zrotation Xrotation Yrotation
                    JOINT r_low_arm
                    {
                      OFFSET -27.5197 0.056351 0.129118
                      CHANNELS 6 Xposition Yposition Zposition Zrotation Xrotation Yrotation
                      JOINT r_hand
                      {
                        OFFSET -22.8331 0.0467534 0.107129
                        CHANNELS 6 Xposition Yposition Zposition Zrotation Xrotation Yrotation
                        End Site
                        {
                          OFFSET -0.1 0 0
                        }
                      }
                    }
                  }
                }
              }
            }
          }
        }
      }
    }
  }
  JOINT l_up_leg
  {
    OFFSET 8.70282 -3.96247 1.9152
    CHANNELS 6 Xposition Yposition Zposition Zrotation Xrotation Yrotation
    JOINT l_low_leg
    {
      OFFSET -0.803084 -36.5309 -0.617314
      CHANNELS 6 Xposition Yposition Zposition Zrotation Xrotation Yrotation
      JOINT l_foot
      {
        OFFSET -2.19176 -38.0664 -5.69911
        CHANNELS 6 Xposition Yposition Zposition Zrotation Xrotation Yrotation
        JOINT l_toes
        {
          OFFSET 0.734061 -9.31305 11.7736
          CHANNELS 6 Xposition Yposition Zposition Zrotation Xrotation Yrotation
          End Site
          {
            OFFSET 0 0 0.1
          }
        }
      }
    }
  }
  JOINT r_up_leg
  {
    OFFSET -8.70282 -3.96247 1.9152
    CHANNELS 6 Xposition Yposition Zposition Zrotation Xrotation Yrotation
    JOINT r_low_leg
    {
      OFFSET 0.803084 -36.5309 -0.617314
      CHANNELS 6 Xposition Yposition Zposition Zrotation Xrotation Yrotation
      JOINT r_foot
      {
        OFFSET 2.19176 -38.0664 -5.69911
        CHANNELS 6 Xposition Yposition Zposition Zrotation Xrotation Yrotation
        JOINT r_toes
        {
          OFFSET -0.734061 -9.31305 11.7736
          CHANNELS 6 Xposition Yposition Zposition Zrotation Xrotation Yrotation
          End Site
          {
            OFFSET 0 0 0.1
          }
        }
      }
    }
  }
}
MOTION
Frames: 6
Frame Time: 0.020000
27.6509 5.29819 -21.8434 -7.49415 -54.0856 -1.17996 0 4.78511 -1.08482 -0.309927 12.3554 -0.0387282 0 5.29195 1.00949 -0.167327 11.4008 -0.141212 -9.66735e-18 5.64355 0.108362 -0.0618538 10.8646 -0.118434 -1.04072e-17 6.12977 -0.417886 0.0229932 9.77681 -0.0864901 -1.85891e-17 7.16586 -1.41888 0.139589 7.63278 -0.0559403 -2.38665e-17 8.94839 -0.861631 0.438734 7.61325 -0.227276 -2.73615e-17 9.94144 1.48576 0.00301497 -0.0161039 -0.0400312 -1.21725e-17 4.50977 0.67399 0.198448 3.93565 -1.94128 -1.70689e-17 4.54241 0.39741 0.704982 2.31849 -1.10296 -1.89342e-17 4.5512 0.720839 3.6302 5.27318 5.00138 1.16172 -7.16758 7.09827 -1.4403 -2.2224 2.04135 12.2059 3.06167 -3.07978 -57.7322 3.88571 9.73951 27.5197 0.056351 0.129118 11.3459 -8.00488 -70.9127 22.8331 0.0467536 0.107129 11.5111 33.4913 -9.282 -1.16172 -7.16756 7.09818 1.98143 -0.766079 1.92843 -12.2059 3.06167 -3.07978 73.0685 23.6618 -7.7344 -27.5197 0.056351 0.129118 -11.6591 -9.02902 76.0259 -22.8331 0.0467534 0.107129 -4.91566 23.7684 8.90556 8.70282 -3.96247 1.9152 34.9105 -69.6146 -0.8998 -0.803084 -36.5309 -0.617314 -156.955 58.7213 136.911 -2.19176 -38.0664 -5.69911 6.90724 -4.32921 15.7187 0.734061 -9.31305 11.7736 -1.83274e-15 -8.76408e-16 9.36934e-17 -8.70282 -3.96247 1.9152 20.6967 -78.9462 17.5852 0.803084 -36.5309 -0.617314 157.927 57.7454 -137.719 2.19176 -38.0664 -5.69911 -1.00348 5.83287 -14.6312 -0.734061 -9.31305 11.7736 1.4668e-16 -5.93912e-16 -1.27703e-14 
28.0159 5.02667 -22.0818 -6.80667 -51.3468 -0.365324 0 4.78511 -1.08482 -0.335208 12.1343 -0.0270702 0 5.29195 1.00949 -0.194691 11.1865 -0.119091 -9.66735e-18 5.64355 0.108362 -0.0861757 10.6707 -0.0840755 -1.04072e-17 6.12977 -0.417886 0.00265378 9.66904 -0.0498476 -1.85891e-17 7.16586 -1.41888 0.136475 7.61842 -0.0141737 -2.38665e-17 8.94839 -0.861631 0.444754 7.59079 -0.195642 -2.73615e-17 9.94144 1.48576 -0.0204172 -0.0241049 -0.0225938 -1.21725e-17 4.50977 0.67399 0.154097 4.11101 -2.08607 -1.70689e-17 4.54241 0.39741 1.06932 1.65733 -1.15054 -1.89342e-17 4.5512 0.720839 3.69009 4.38472 4.86381 1.16172 -7.16758 7.09827 -1.22983 -2.22285 1.96212 12.2059 3.06167 -3.07978 -58.4443 2.86284 8.63102 27.5197 0.056351 0.129118 11.4347 -8.26432 -72.2207 22.8331 0.0467536 0.107129 10.8262 33.2746 -8.81744 -1.16172 -7.16756 7.09818 2.22662 -0.773546 1.87883 -12.2059 3.06167 -3.07978 73.6529 23.1966 -7.18297 -27.5197 0.056351 0.129118 -11.6103 -8.84565 75.1195 -22.8331 0.0467534 0.107129 -4.82825 24.5877 8.44828 8.70282 -3.96247 1.9152 35.4259 -69.3273 -0.509325 -0.803084 -36.5309 -0.617314 -156.273 59.3709 136.338 -2.19176 -38.0664 -5.69911 7.04908 -6.88883 15.949 0.734061 -9.31305 11.7736 -1.31467e-16 -8.01652e-16 1.89372e-17 -8.70282 -3.96247 1.9152 17.4408 -79.2475 16.2207 0.803084 -36.5309 -0.617314 157.405 58.277 -137.286 2.19176 -38.0664 -5.69911 -1.83404 4.10411 -14.7598 -0.734061 -9.31305 11.7736 -6.74511e-16 -5.55825e-16 -1.27438e-14 
28.3935 4.88447 -22.4335 -6.31338 -48.9115 0.273708 0 4.78511 -1.08482 -0.367198 11.951 -0.0178038 0 5.29195 1.00949 -0.228975 11.0132 -0.101746 -9.66735e-18 5.64355 0.108362 -0.116527 10.5258 -0.0580125 -1.04072e-17 6.12977 -0.417886 -0.02097 9.61633 -0.0225847 -1.85891e-17 7.16586 -1.41888 0.129799 7.65323 0.020032 -2.38665e-17 8.94839 -0.861631 0.449279 7.61587 -0.167745 -2.73615e-17 9.94144 1.48576 -0.0419155 -0.0381085 -0.0115599 -1.21725e-17 4.50977 0.67399 0.118509 4.32597 -2.248 -1.70689e-17 4.54241 0.39741 1.40213 1.02818 -1.20904 -1.89342e-17 4.5512 0.720839 3.73685 3.55425 4.90081 1.16172 -7.16758 7.09827 -1.04484 -2.26591 1.85208 12.2059 3.06167 -3.07978 -59.1262 1.67666 7.32389 27.5197 0.056351 0.129118 11.5126 -8.50924 -73.4472 22.8331 0.0467536 0.107129 10.1326 33.4392 -8.20755 -1.16172 -7.16756 7.09818 2.37233 -0.874273 1.87039 -12.2059 3.06167 -3.07978 74.0053 22.5839 -6.25954 -27.5197 0.056351 0.129118 -11.587 -8.76194 74.7045 -22.8331 0.0467534 0.107129 -4.4976 24.8267 7.78924 8.70282 -3.96247 1.9152 34.997 -68.3198 -0.825818 -0.803084 -36.5309 -0.617314 -154.831 60.6566 135.114 -2.19176 -38.0664 -5.69911 7.21232 -9.189 16.1898 0.734061 -9.31305 11.7736 -1.73532e-15 -8.67665e-16 8.49501e-17 -8.70282 -3.96247 1.9152 13.8411 -78.6026 14.3833 0.803084 -36.5309 -0.617314 156.253 59.3893 -136.322 2.19176 -38.0664 -5.69911 -2.60977 2.65441 -14.9085 -0.734061 -9.31305 11.7736 -1.52854e-15 -5.20784e-16 -1.2708e-14 
28.805 4.7434 -22.7747 -5.92303 -46.71 0.810828 0 4.78511 -1.08482 -0.386479 11.8006 -0.0150373 0 5.29195 1.00949 -0.249123 10.8676 -0.0926771 -9.66735e-18 5.64355 0.108362 -0.134014 10.404 -0.041332 -1.04072e-17 6.12977 -0.417886 -0.0336887 9.56036 -0.00492073 -1.85891e-17 7.16586 -1.41888 0.129593 7.66501 0.0435311 -2.38665e-17 8.94839 -0.861631 0.455211 7.61311 -0.147995 -2.73615e-17 9.94144 1.48576 -0.0582496 -0.0446259 -0.00721311 -1.21725e-17 4.50977 0.67399 0.114269 4.72661 -2.34067 -1.70689e-17 4.54241 0.39741 1.70573 0.526554 -1.23662 -1.89342e-17 4.5512 0.720839 3.66175 2.69415 4.89657 1.16172 -7.16758 7.09827 -0.682886 -2.34252 1.83272 12.2059 3.06167 -3.07978 -60.0519 0.65946 5.99265 27.5197 0.056351 0.129118 11.5706 -8.70454 -74.4197 22.8331 0.0467536 0.107129 9.53699 33.673 -7.64822 -1.16172 -7.16756 7.09818 2.12997 -1.04385 1.75548 -12.2059 3.06167 -3.07978 74.4564 21.8363 -5.17136 -27.5197 0.056351 0.129118 -11.58 -8.73717 74.5816 -22.8331 0.0467534 0.107129 -4.09182 24.8269 7.13441 8.70282 -3.96247 1.9152 34.3559 -67.222 -1.20554 -0.803084 -36.5309 -0.617314 -152.95 62.1732 133.492 -2.19176 -38.0664 -5.69911 7.36523 -11.0499 16.3893 0.734061 -9.31305 11.7736 6.55595e-15 -5.11399e-16 -2.71315e-16 -8.70282 -3.96247 1.9152 11.4722 -77.6315 13.5592 0.803084 -36.5309 -0.617314 154.662 60.7998 -134.97 2.19176 -38.0664 -5.69911 -3.30636 1.52998 -15.0732 -0.734061 -9.31305 11.7736 1.87406e-15 -6.70298e-16 -1.28459e-14 
29.2609 4.60392 -23.0275 -5.63975 -44.5494 1.24506 0 4.78511 -1.08482 -0.386058 11.5968 -0.026694 0 5.29195 1.00949 -0.24824 10.6923 -0.0961138 -9.66735e-18 5.64355 0.108362 -0.132062 10.2663 -0.0381892 -1.04072e-17 6.12977 -0.417886 -0.0298185 9.50222 -0.000526036 -1.85891e-17 7.16586 -1.41888 0.138254 7.68412 0.0494188 -2.38665e-17 8.94839 -0.861631 0.459209 7.62322 -0.143928 -2.73615e-17 9.94144 1.48576 -0.0706208 -0.0520387 -0.00659515 -1.21725e-17 4.50977 0.67399 0.12471 5.2882 -2.35984 -1.70689e-17 4.54241 0.39741 1.94455 0.021926 -1.23174 -1.89342e-17 4.5512 0.720839 3.53329 1.74148 4.95051 1.16172 -7.16758 7.09827 -0.185365 -2.47464 1.9067 12.2059 3.06167 -3.07978 -61.2054 -0.269456 4.72788 27.5197 0.056351 0.129118 11.6127 -8.85465 -75.1643 22.8331 0.0467536 0.107129 9.0009 34.0409 -7.1576 -1.16172 -7.16756 7.09818 1.67302 -1.2846 1.53407 -12.2059 3.06167 -3.07978 75.0372 20.9585 -4.18821 -27.5197 0.056351 0.129118 -11.5888 -8.76808 74.735 -22.8331 0.0467534 0.107129 -3.57603 24.3566 6.66776 8.70282 -3.96247 1.9152 34.1269 -66.235 -1.0553 -0.803084 -36.5309 -0.617314 -150.84 63.6843 131.643 -2.19176 -38.0664 -5.69911 7.50462 -12.553 16.5565 0.734061 -9.31305 11.7736 -2.49081e-15 -9.00229e-16 1.17514e-16 -8.70282 -3.96247 1.9152 9.30899 -76.696 12.6135 0.803084 -36.5309 -0.617314 152.733 62.3373 -133.303 2.19176 -38.0664 -5.69911 -4.01739 0.585147 -15.239 -0.734061 -9.31305 11.7736 -2.55815e-15 -4.85352e-16 -1.26609e-14 
29.7522 4.39515 -23.1956 -5.45447 -42.4802 1.56691 0 4.78511 -1.08482 -0.340067 11.4009 -0.0455334 0 5.29195 1.00949 -0.208948 10.5165 -0.0987276 -9.66735e-18 5.64355 0.108362 -0.098467 10.1137 -0.033567 -1.04072e-17 6.12977 -0.417886 -0.00317912 9.40451 0.00634254 -1.85891e-17 7.16586 -1.41888 0.15978 7.64773 0.0527835 -2.38665e-17 8.94839 -0.861631 0.463288 7.57199 -0.143452 -2.73615e-17 9.94144 1.48576 -0.0798668 -0.0530838 -0.00580302 -1.21725e-17 4.50977 0.67399 0.144612 5.93588 -2.31181 -1.70689e-17 4.54241 0.39741 2.16332 -0.474431 -1.19453 -1.89342e-17 4.5512 0.720839 3.40443 0.809743 4.88266 1.16172 -7.16758 7.09827 0.394026 -2.59749 2.0095 12.2059 3.06167 -3.07978 -62.5659 -1.09246 3.57449 27.5197 0.056351 0.129118 11.6428 -8.9667 -75.7185 22.8331 0.0467536 0.107129 8.48254 35.1169 -6.62344 -1.16172 -7.16756 7.09818 1.07139 -1.51625 1.25567 -12.2059 3.06167 -3.07978 75.6219 20.066 -3.44648 -27.5197 0.056351 0.129118 -11.6081 -8.83766 75.08 -22.8331 0.0467534 0.107129 -3.02275 23.2041 6.25897 8.70282 -3.96247 1.9152 33.8634 -65.4968 -0.925602 -0.803084 -36.5309 -0.617314 -148.788 64.9893 129.82 -2.19176 -38.0664 -5.69911 7.61495 -13.8049 16.7118 0.734061 -9.31305 11.7736 -4.42656e-15 -9.84755e-16 2.02041e-16 -8.70282 -3.96247 1.9152 6.43227 -75.982 10.623 0.803084 -36.5309 -0.617314 150.658 63.8066 -131.482 2.19176 -38.0664 -5.69911 -4.77292 -0.320327 -15.3915 -0.734061 -9.31305 11.7736 -2.26477e-15 -4.93706e-16 -1.26693e-14 
